<?xml version="1.0" encoding="utf-8"?>
<!-- Generator: Adobe Illustrator 21.1.0, SVG Export Plug-In . SVG Version: 6.00 Build 0)  -->
<svg version="1.1" id="Layer_1" xmlns="http://www.w3.org/2000/svg" xmlns:xlink="http://www.w3.org/1999/xlink" x="0px" y="0px"
	 viewBox="0 0 134 21" style="enable-background:new 0 0 134 21;" xml:space="preserve">
<style type="text/css">
	.st0{fill:#2EA0D8;}
</style>
<g>
	<path class="st0" d="M125.2,9.4c0.3,0,0.5,0.2,0.4,0.2c0.6-0.1,0.6,0.1,0.7-0.3c0.4-0.2,0.7,0.1,0.3,0.2l1.1-0.1L127,9.3
		c0.2-0.3,1,0.2,1.2-0.2L127.1,9l0.1-0.1c-0.3,0.1-0.8,0-0.9,0c0,0,0-0.1,0.2-0.1c-1.4-0.1-0.4,0.5-1.5,0.5
		C125,9.4,125.1,9.4,125.2,9.4z"/>
	<path class="st0" d="M124.1,8.6l-0.5,0.3l-0.8-0.2c0,0.1-0.6,0.2-0.2,0.3c0.1,0,0.2,0,0.4,0c-0.1,0.3-1.1,0.1-0.9,0.4
		c0.6,0,0.7,0,1.1-0.2c0.6,0.1,1,0.2,1.3,0.3c0.2,0,0.2-0.2,0.4-0.2h-0.1V8.9c-0.2,0.1-0.4,0-0.6,0l1-0.4c-0.3-0.4-1.2-0.3-1.6-0.4
		C124,8.5,123.2,8.2,124.1,8.6z"/>
	<path class="st0" d="M124.9,9.4L124.9,9.4L124.9,9.4z"/>
	<path class="st0" d="M55,11.5c-0.2,0-0.2,0.1-0.3,0.2l2.2-0.1c-0.1-0.1-0.7-0.2-0.3-0.3c-0.2-0.1-0.8,0-0.9,0.2l0.2-0.2
		c-0.5,0.2-0.9-0.2-0.6-0.3l0,0L54,11.8C54.5,11.8,54.4,11.5,55,11.5z"/>
	<path class="st0" d="M9.3,15.9c0.3-0.1,0.3-0.1,0.3-0.2C9.4,15.8,9.4,15.8,9.3,15.9z"/>
	<path class="st0" d="M53.6,12l-0.4,0.3C53.4,12.3,53.5,12.2,53.6,12z"/>
	<path class="st0" d="M56.5,7.9C56.5,7.9,56.5,7.8,56.5,7.9L56.3,8l0,0C56.4,7.9,56.4,7.9,56.5,7.9z"/>
	<path class="st0" d="M43.6,13.8L43.6,13.8L43.6,13.8z"/>
	<path class="st0" d="M62.5,6l-1,0.3c0.1-0.1-0.4-0.1-0.1-0.2c-0.1,0-0.4,0.1-0.3,0.1h0.2c-0.5,0.4-0.2,0.5-1,0.8
		c0.6,0.2,0.8,0,1.1-0.2c0.1,0,0.2,0,0.3-0.1l0.8-0.5V6z"/>
	<path class="st0" d="M22.8,12L22.8,12L22.8,12z"/>
	<path class="st0" d="M22.8,11.9V12C22.8,11.9,23,11.9,22.8,11.9z"/>
	<path class="st0" d="M53.8,11.8c0,0.1-0.1,0.1-0.1,0.2l0.3-0.2C53.9,11.8,53.9,11.8,53.8,11.8z"/>
	<path class="st0" d="M54.5,11l0.8-0.1l0.3-0.2C55.3,10.8,55,10.9,54.5,11z"/>
	<path class="st0" d="M45,13.9c-1.7,0.2,0.4-0.4-0.4-0.5c-0.5,0.1-0.6,0.3-0.9,0.4c1.4-0.3-0.1,0.6,1.2,0.4c-0.2,0.4-1,0.5-1.4,0.4
		c-0.6-0.3,0.4-0.3,0.5-0.6c-0.5,0.1-0.4,0.2-0.7,0.4c-0.9,0-1.8,0.6-2.3,0.2c-0.6,0.1-0.6,0.3-0.9,0.5c0,0.4,1,0.1,1.2,0.4
		c-0.1,0-0.2-0.1-0.1-0.1h0.5c-0.5-0.1,0-0.4,0.3-0.4c0.2,0,0.6-0.1,0.5,0l-0.2,0c0.4,0.1,0.8-0.3,1.3-0.2c0,0.1-0.1,0.1-0.1,0.2
		c0.4-0.3,0.9-0.3,1.6-0.5l-0.4,0.4c0.5-0.4,1.8-0.4,2.6-0.3c-0.1-0.1-0.3-0.1-0.2-0.2c0.5-0.1,0.9,0.1,0.7,0.3
		c0.5-0.3,1.9,0.1,2.5-0.3c1-0.7,2-1.4,3-2c-0.1,0.1-0.2,0.1-0.4,0.1c-0.3-0.3-0.5-0.3,0-0.6c-0.5,0.2-0.3,0.4-1,0.5
		c0.3-0.2,0.3-0.5-0.4-0.5c-1.7,0.4-2.8,1.4-4.4,2c-0.1-0.2-1.3-0.1-2-0.1c0.2-0.3,0.7-0.4,1.1-0.5c-0.3,0-0.8,0-1.2,0.1L45,13.9z"
		/>
	<path class="st0" d="M48.9,12.7L48.9,12.7C48.8,12.7,48.9,12.7,48.9,12.7z"/>
	<path class="st0" d="M46.4,13.3L46.4,13.3L46.4,13.3C46.3,13.3,46.4,13.3,46.4,13.3z"/>
	<path class="st0" d="M53.4,11.3c0.1-0.1,0.2-0.1,0.3-0.2C53.6,11.1,53.5,11.2,53.4,11.3C53.3,11.2,53.3,11.3,53.4,11.3z"/>
	<path class="st0" d="M53.7,11.7v0.1h0.1C53.8,11.8,53.8,11.7,53.7,11.7z"/>
	<path class="st0" d="M38.2,12.3H38C38.1,12.3,38.1,12.3,38.2,12.3z"/>
	<path class="st0" d="M43,13.6c0.6-0.1,0-0.4,0.9-0.4h-0.3c0.6-0.2,1.7-0.2,2.4-0.3c0,0.1,0.5,0.1,0.4,0.4c0.5-0.1,1-0.2,1.2-0.4
		c0.3,0.1,0.8-0.2,1.2-0.1c-0.2-0.1,0.5-0.5-0.4-0.3c0.1,0,0-0.1,0.1-0.1c-0.6-0.1-0.8,0.2-1.4,0.2c-0.3-0.1,0.5-0.3,0.2-0.3
		c-0.6,0.2-2.1,0-2,0.5c-0.5,0.1-0.6,0-0.7-0.1c-0.7,0.6-2.8,0-2.8,0.7c0.3-0.1,0.7-0.1,1.1-0.3L43,13.6z"/>
	<path class="st0" d="M52.3,11.4L52.3,11.4C52.3,11.4,52.3,11.4,52.3,11.4z"/>
	<path class="st0" d="M60,12.9l-0.2,0.5c-1.4,0.2-1.9,0.1-3.2,0.2c-0.1-0.1,0-0.1,0.1-0.1c-0.9,0.1-2.2,0.1-2.8,0.3
		c-0.3,0-1-0.1-0.8-0.2c-0.1,0-0.3,0.1-0.4,0.1c-0.1-0.2,0.3-0.1,0.3-0.2c-0.1,0-0.2,0-0.2,0c0.2-0.2-0.3-0.5,0.7-0.6
		c0.4,0.4-0.7,0.1-0.4,0.5c0.3,0,0.3-0.2,0.3-0.2c0.4,0,0.4,0.1,0.4,0.2c0.1-0.1,0.7,0,0.9-0.2c0.8-0.1,0,0.3,0.5,0.3l0.3-0.4h0.9
		c1.2-0.2-0.2-0.7,1.2-1c-0.2,0.2,0.4,0.6,1.1,0.6c-0.4,0-1.1,0.4-1.6,0.3c0.7,0.3-1,0.1-0.6,0.5c0.3-0.2,0.9-0.3,1.4-0.2h-0.2
		c0.5,0,0.9-0.5,1.5-0.3c0.3,0,0.3,0.1,0.2,0.2C59.8,12.9,60,12.8,60,12.9z M59.3,13h-0.5C59,13.1,59.1,13.1,59.3,13z"/>
	<path class="st0" d="M117.6,8.2L117.6,8.2C117.7,8.2,117.7,8.2,117.6,8.2z"/>
	<path class="st0" d="M76.7,7.3H77C76.8,7.3,76.7,7.3,76.7,7.3z"/>
	<path class="st0" d="M82.7,5.8L83,5.7C82.9,5.7,82.8,5.7,82.7,5.8z"/>
	<polygon class="st0" points="114.5,8 114.4,8 114.4,8 	"/>
	<path class="st0" d="M94.7,6.8c0.1,0,0.1,0.1,0.2,0.1C94.9,6.9,94.8,6.8,94.7,6.8z"/>
	<path class="st0" d="M82.6,5.8L82.6,5.8L82.6,5.8L82.6,5.8z"/>
	<path class="st0" d="M74,6.1c-0.1,0-0.1,0-0.2,0C73.9,6.1,73.9,6.1,74,6.1z"/>
	<path class="st0" d="M74.4,7.3c-0.1,0-0.1,0-0.2,0H74.4z"/>
	<path class="st0" d="M65.1,6.8l-0.4,0.1C64.9,6.8,65,6.8,65.1,6.8z"/>
	<path class="st0" d="M73.4,7C73.4,7.1,73.4,7.1,73.4,7C73.4,7.1,73.5,7.1,73.4,7z"/>
	<path class="st0" d="M119.8,9.6L119.8,9.6L119.8,9.6L119.8,9.6z"/>
	<path class="st0" d="M120.7,9.1c0.1,0,0.2,0,0.3,0C120.9,9,120.8,9,120.7,9.1z"/>
	<path class="st0" d="M99.9,7.6c0.1,0.1,0.3,0.1,0.2,0.2C100.3,7.7,100.3,7.5,99.9,7.6z"/>
	<path class="st0" d="M117.9,12.2c0.1-0.1,0.1-0.1,0.2-0.1C118,12.1,117.9,12.1,117.9,12.2z"/>
	<path class="st0" d="M118.1,12l0.2-0.1C118.3,12,118.2,12,118.1,12z"/>
	<path class="st0" d="M97.4,11l-0.1-0.1C97.3,11,97.4,11.1,97.4,11z"/>
	<path class="st0" d="M121.3,9.1c0.1-0.1,1.4-0.2,0.3-0.4c0.1-0.3,0.7-0.1,1.1-0.1c-0.2-0.1,0.1-0.2,0.1-0.3c-0.2,0-0.3,0.1-0.6,0.1
		c-0.1-0.2,0.3-0.2,0.6-0.1c-0.4-0.2,0.5-0.2,0-0.4c-1.1,0-1.9,0.1-2.7,0.5c0.6,0,1.4-0.1,1.9,0.1l-0.2,0.3
		c-0.6-0.3-0.9-0.1-1.5-0.2l1.3,0.2C122,9,121.5,9,121.1,9C121.2,9.1,121.3,9.1,121.3,9.1z"/>
	<path class="st0" d="M120.3,11.4L120.3,11.4C120.3,11.4,120.4,11.4,120.3,11.4L120.3,11.4z"/>
	<path class="st0" d="M65.4,12.3l-0.1,0.1C65.4,12.3,65.4,12.3,65.4,12.3z"/>
	<path class="st0" d="M119.6,10.1L119.6,10.1L119.6,10.1z"/>
	<path class="st0" d="M68.2,12.2L68.2,12.2L68.2,12.2z"/>
	<path class="st0" d="M68.7,6.3L68.7,6.3C68.6,6.3,68.7,6.3,68.7,6.3z"/>
	<path class="st0" d="M68.2,12.1C68.2,12.2,68.2,12.2,68.2,12.1C68.2,12.2,68.2,12.2,68.2,12.1z"/>
	<path class="st0" d="M81.6,10.8c0,0,0,0-0.1-0.1C81.5,10.8,81.5,10.8,81.6,10.8z"/>
	<path class="st0" d="M78.9,10.5L78.9,10.5L78.9,10.5z"/>
	<path class="st0" d="M99.3,6.4c-0.1,0-0.2,0-0.3,0C99.1,6.4,99.2,6.4,99.3,6.4z"/>
	<path class="st0" d="M68.2,12.2l-0.1,0.1C68.1,12.3,68.1,12.2,68.2,12.2z"/>
	<polygon class="st0" points="85.6,9.4 85.6,9.5 85.6,9.5 	"/>
	<path class="st0" d="M87,9.6C87,9.7,87,9.7,87,9.6c0.4,0,1.3,0.1,1.4-0.2c-0.2,0-1-0.2-0.9-0.3c-0.3,0.1-0.9-0.1-1-0.1
		c0.6,0.2,0.1,0.2-0.3,0.3C85.9,9.2,86.3,9.1,86,9h-0.8h0.7l-0.2,0.3c0,0,0,0,0.1,0C86.9,9.3,85.8,9.8,87,9.6z"/>
	<path class="st0" d="M86.9,9.7c-0.1,0-0.1,0-0.2,0.1C86.9,9.8,86.9,9.8,86.9,9.7z"/>
	<path class="st0" d="M91.8,10.2c0.1,0,0.1,0,0.2,0C92,10.2,91.9,10.2,91.8,10.2z"/>
	<path class="st0" d="M56.2,10.7c0,0.1,0.7,0.2,0.7,0C56.7,10.7,56.5,10.7,56.2,10.7L56.2,10.7z"/>
	<path class="st0" d="M105,9.2c-0.1,0-0.2,0-0.2,0l0,0C104.8,9.3,105,9.3,105,9.2z"/>
	<path class="st0" d="M87.8,9c-0.1,0-0.2,0.1-0.2,0.1C87.6,9.1,87.7,9.1,87.8,9z"/>
	<path class="st0" d="M105.1,9.7c0.1,0.1,0.2,0.2,0.3,0.2c0.2,0,0.3-0.1,0.6-0.1C105.6,9.9,105.4,9.9,105.1,9.7z"/>
	<path class="st0" d="M105.9,9.9L105.9,9.9L105.9,9.9z"/>
	<path class="st0" d="M55.8,10.6l-0.2,0.1L55.8,10.6h-0.6c-0.1,0-0.1,0-0.2,0c0,0,0.1,0,0.1-0.1h-0.2c-0.4,0.2-1.3,0.5-1.6,0.6
		c-0.4,0.1-0.8,0.2-1.1,0.2c0.3,0,0.6-0.1,0.5-0.2C52.2,11,51.9,10.6,51,11h0.5l-1.1,0.6c-0.4-0.2,0.6-0.3,0.7-0.5
		c-0.9,0.3-1.7-0.3-2.1,0.2c-0.1-0.2-0.2-0.6-0.8-0.6c0.5,0.2-0.3,0.2,0,0.5c-0.2,0.2-0.7,0-0.7,0.1v-0.1c-1.1-0.3-1.3,0.3-1.8,0.6
		c-1.2,0.2-1.8,0.1-2.8,0.2c-0.1-0.2-0.4-0.6-0.8-0.5c-0.2,0.2-1.1,0.4-1.1,0.7c0.7,0.1,0.6-0.3,1-0.4c0.4,0.3,0.1,0.3,0.6,0.4
		c-0.4-0.1-1.8,0.3-2.2,0.1l0.1-0.1c-0.7-0.1-0.9-0.8-2-0.3L38,12.1V12c-0.9,0.1-0.7-0.3-1.7,0.1c0.1,0,0-0.1,0.1-0.1
		c-0.6-0.1-1.1,0.3-1.5,0.4c-0.3-0.2,0-0.2,0.2-0.4c-1,0-2,0.5-2.6,0.9l-0.5,0c0.4-0.1,0.8-0.4,0.7-0.6c-0.3,0.1-0.3,0.2-0.8,0.2
		c0.1-0.2,0.3-0.3,0.5-0.5c-1.1-0.1-0.2,0.6-0.9,0.2c-0.3,0-0.5,0.3-0.5,0.5l-0.6-0.2c0,0.2-0.8,0.3-1.2,0.4c0,0.1,0.4,0.2,0.6,0.1
		c0,0.2-0.5,0.3-0.8,0.4c-0.2-0.5-2.1,0.3-1.8-0.3c-1.4,0.3-3.5,0.6-4.4,0.9c-0.3-0.1-1,0-0.6-0.3c-1.2,0.1-1.7,0.7-2.9,0.7
		c-0.1,0,0.5-0.1,0.5-0.2c-0.7,0.3-1.4,0-2.6,0.3c0.2,0,0.2-0.1,0.3-0.2c0,0.1-0.5,0.2-0.8,0.3c-0.2,0,0.2-0.1,0.1-0.1
		c-2.3,0.1-4,1-6.2,1.3c0.6-0.1,0.8-0.4,0.8-0.6l-0.6,0.1c-0.2,0.2-0.7,0.3-1.1,0.4c-0.1-0.1-0.3-0.1-0.1-0.2
		c-1.3-0.1-1.9,0.9-3.4,0.9L8,15.5l-0.5-0.2L8.1,15c-0.5-0.1-0.9,0.4-1,0.1C7.2,15,7.5,15,7.4,14.9c-0.5,0-0.5,0.2-0.8,0.3
		c0.9-0.6,2.7-0.9,3.6-1.2c0.1-0.1-0.1,0.1-0.1,0.2c0.4-0.1,0.7,0,1.1-0.1c0.3-0.3-0.3-0.1-0.5-0.1c0-0.2,0.1-0.2,0.4-0.3
		c0.1,0.2,1.5-0.1,1.9,0.1c1.5-0.3-0.3-0.6,1.1-0.7l0.5,0.2c0.8-0.3,1.9-0.7,2.8-0.7h-0.2c-0.1,0.1,0.1,0.2,0.2,0.2
		c0.7,0,1.3-0.4,1.8-0.2c0.8-0.4,2.1-0.8,3-1.1c0.3,0.3-1.2,0.5-1.5,0.7l0.9-0.1c-0.5,0.1-0.7,0.2-1,0.5c0.8,0,1-0.4,1.7-0.6
		c0,0.1,0.1,0.2,0.4,0.1l0.1-0.3c0,0,0,0,0.1,0l1.2-0.3c-0.3-0.1-0.3-0.3-0.6-0.2c0.1,0.1-0.1,0.2-0.5,0.2c0.3-0.2-0.3-0.1-0.3-0.2
		c0.7-0.1,1.5-0.2,1.9-0.3l0.2,0.2c0.6,0,1.3-0.2,1.7-0.2l-0.1,0.1c0.8,0,1.5-0.3,2.2-0.1c0.6-0.3,1.5-0.6,2-1
		c0.3-0.3,2,0.2,2.7-0.3c0.1,0-0.5,0.3-0.7,0.4c0.5,0,0.9-0.4,1.1-0.1c-1.1,0,0.1,0.2-0.4,0.4c0.5-0.1,1.1-0.2,1.3-0.3
		c-0.9,0.1,0.3-0.5-0.6-0.2c0.6-0.3,1.5-0.5,2.4-0.5c0,0.1,0.1,0.2,0.4,0.2L37,9.4c0.4,0-0.7,0.3,0.1,0.3c0.7-0.4,2.3,0,2.6-0.7
		c0.6,0.2-1.1,0.3-0.2,0.6C39,9.9,38.3,9.7,38.1,10c0.5-0.1,0.2,0.2,0.5,0.2l0.5-0.2H39c0.9-0.4,2.4-0.4,3.6-0.5
		c1-0.4,1.7-0.9,2.9-1c-0.3,0.2,1,0.1,0.3,0.5c0.6,0.1,1.1-0.1,1.1-0.2c-0.5,0-0.2,0-0.6-0.1c0.3-0.2,0.9-0.2,1.2-0.1
		c-0.1,0-0.1,0-0.1,0.1c0.6,0.1,0.3-0.2,0.7-0.3c0.2,0.2,1,0,1.4,0.1l0.6-0.4c-0.3,0.2,0.6,0,0.7,0.2C51,8.2,51.3,7.9,52,8
		c-0.3,0.1,0.6,0.1,0.6,0.3c1.1,0.1,1.7-0.7,2.8-0.4c0,0.1-0.2,0.2,0.1,0.2C55.6,8,56.1,8,56.3,8l0,0l0,0c0.1,0,0.2,0,0.2-0.1
		c0.4-0.2,0.6-0.5,1.5-0.7c-0.1-0.2-0.8-0.1-1.1,0l-0.3,0.3c-0.3-0.4-0.8,0.1-1,0c0.5-0.5,2-0.5,2.9-0.8c-0.6-0.3-1.7-0.3-2.7-0.2
		l0.5,0.1h-0.5l0.5,0.2c-0.5,0-0.9,0.1-1.4,0.1c0.5,0,0.8,0.3,0.5,0.3c-0.6-0.2-0.6,0.2-1.1,0.2c0.3,0,0.6,0,0.4,0.1
		c-0.9-0.2-1.1,0-2-0.3c0.1,0.4-1,0.1-1.1,0.4H52L51.1,8c-0.8-0.3,0.6-0.4-0.5-0.5c-1,0-1,0.5-1.8,0.6c0.2-0.3,0.9-0.5,1.5-0.6
		l-0.4-0.1c0.2-0.2,1.1-0.2,1.6-0.2c-0.7,0.3,0.4,0.1,0.7,0.3c0-0.2-0.4-0.2,0.1-0.4c-0.5,0-0.6,0.1-1.3,0c1.5,0,1.3-0.9,2.6-0.8
		c-0.6,0.1,0.2,0.3,0.3,0.4c0.3,0,0.8-0.1,1.1-0.2l-0.2-0.3c0.7-0.2,1,0.5,1.9,0.1c0.1-0.2-0.8,0-0.6-0.1c1.2-0.3,1.6,0.2,2.7,0.4
		c0.1-0.1,0-0.3,0.4-0.5c-0.1,0.2,0.2,0.3-0.2,0.5c0.4,0.1,0.8-0.1,1.1-0.2c-0.7-0.1,0.3-0.3,0.4-0.4c0.4,0-0.1,0.2-0.3,0.3
		c0.3,0,0.7,0.3,0.8,0c0,0.2-0.8,0.6-1.4,0.7H60c-0.5,0.1-0.5,0-0.9,0c0.4,0.1,0.3,0.3,0.3,0.5c-0.1,0,0-0.1,0-0.1
		c-0.3,0-0.5,0-0.5,0.1c-0.3,0.3,0.4,0.2,0.6,0.3H60l1.5-1c0.7-0.1,1,0.1,1.5,0.2l0.1-0.3c0.6,0,1.1,0.1,0.8,0.4
		C63.9,7,63.8,7,63.7,7c0,0,0,0.1-0.1,0.1l0,0c0.6-0.1,1-0.2,1-0.2c-1,0.4,0,0.4-0.2,0.9l1.1-0.2c-0.7-0.1,0-0.2,0.2-0.3
		c0.1,0.2,0.9,0,1.2,0v0.1c0.4,0.1,1,0,1.4,0c0-0.1,0.5-0.5,0.8-0.7c-0.7-0.1-0.3-0.2-0.4-0.3c0.1,0,0.2,0,0.2,0
		c0.1-0.1-0.1-0.1-0.2-0.2c-0.8,0.1-1.6,0.2-1.9,0.5c0.2,0.1,0.4-0.2,0.7-0.1c-0.4,0.2-0.9,0.2-1.5,0.2l-0.2-0.2l-0.7,0.1
		c0.3-0.1,0.1-0.3,0.8-0.4c-0.1-0.2-0.7,0.1-1.1,0l-0.2,0.3c0.1-0.2-0.8-0.1-0.2-0.4l1-0.3l-0.3-0.2L66,5.8l-0.2,0.1
		c1.4-0.3,0.4,0.5,1.9,0.1c0.4-0.3,0.9-0.4,1.8-0.3c-0.6,0.1-0.1,0.2-0.3,0.4c0.7,0.1,0.9-0.2,1.2-0.3c0.2,0.2,0.3,0.3-0.3,0.3
		C70,6.5,70.9,6,70.9,6.4c1.9-0.1,1.5-1.3,3.8-0.9l-0.1,0.2c1.4-0.2,2.3,0,3.6-0.2l1,0.4C79,6,78.4,6.3,78.7,6.5
		c-0.5-0.4-1-0.2-1.6-0.4c-0.1,0.1,0.2,0.2,0.3,0.2c-0.3,0-0.5-0.2-0.9-0.1c0,0.1,0.5,0.2,0.1,0.2L76,6.2c-0.8,0.1-0.4,0.6-1.3,0.5
		c0.2-0.2,0.5-0.5,0.9-0.6c-0.4,0,0.6-0.1,0.2-0.3c-0.6,0.3-0.9,0.1-1.7,0.3c0-0.1,0-0.1,0.2-0.1l-1.2-0.1c0.3,0.2-1,0.2-0.9,0.5
		c1.3,0.1,0.9-0.1,2.3,0c-0.4,0.1-0.9,0.4-1.2,0.6c0,0,0,0-0.1,0c-0.2,0.3,0,0.3,0,0.8c0.6-0.4,1.1-0.1,1.9-0.3
		c0.1-0.3-0.5-0.3-0.8-0.2L75,7.1l-0.1,0.1l1.7,0.1c-0.3,0-0.4,0.2-0.6,0.3c0.2,0,0.4,0.1,0.7,0.1c-0.1-0.2,0-0.4,0.2-0.4
		c1.1,0,1.7,0.3,2.1,0.5h0.1C79,7.5,80,7.3,80.3,7.1c0,0.3,0.6,0.1,0.9,0.3c0.2-0.3-0.1-0.7-0.5-1C80,6.7,80.3,6.7,80,7.1l-1.2,0.3
		l0.3-0.2C78.5,7,77.9,7.3,77.9,7c0.3-0.2,0.8-0.1,1.2-0.3l-0.4-0.1c0.7-0.3,0.4,0.3,1.2,0.1c-0.3-0.3,0.1,0,0.4-0.2
		c-0.3-0.2-1.5,0.1-1.2-0.4c0.4-0.2,1.5,0.5,2.1,0v0.1c0.9,0,1.2-0.2,1.5-0.4c0.3,0.2,0.8,0,1.2-0.1v0.1l0.6-0.1
		c-0.3,0.2-0.7,0-1.1,0l0.1,0.2c-0.6-0.3-0.9,0.1-1.4,0.4c0.6-0.2,1.8,0.1,1.9-0.4l0.4,0.2L84.6,6c0.3,0.2,0,0.5-0.6,0.5
		c-0.1-0.1-0.1-0.1-0.1-0.1c-0.3,0.1-0.5,0.3-1.1,0.2L83,6.7c-0.8,0-1.5,0.1-1.8,0.3c1.1,0.1,2.2,0.1,3.3,0.1
		c0.3-0.6,0.7-0.9,0.8-1.4c0.7-0.1,1.7-0.2,2.3,0l-0.1,0.1c0.3,0.1,0.6,0,0.8,0c0.3,0.1-0.2,0.3,0,0.3l1-0.2
		c-0.1,0.2-0.9,0.2-1.3,0.3c0.1,0,0.2-0.1,0.2-0.1c-0.5-0.1-1.4,0.3-1.6,0c-0.2,0.1,0.5-0.2-0.3-0.3c-0.5-0.1-0.7,0.2-0.7,0.3
		c0,0.1,0.8,0.2,0.5,0.3c0.4,0,0.6-0.2,1.1-0.1c-0.4,0-1,0.3-1.2,0.1c-0.8,0.2-0.7,0.9-0.3,0.9c-0.1-0.2,1.5-0.2,0.4-0.5
		c0.5-0.3,1.3-0.3,1.9-0.4l0,0l0.8-0.1c-0.1,0.1-0.3,0.1-0.3,0.3l1.1-0.4C89,6.4,90,6.4,90.2,6.5c0.1-0.2,0.5-0.3,0.1-0.5
		c-0.3,0-0.1,0.3-0.5,0.3L90.3,6l0,0l0.3-0.3c0.8,0-0.3,0.6,0.7,0.4l-0.1-0.4c1.2,0.1,2.6,0.5,3.5,0.3c-0.2,0.2-0.3,0.5,0,0.7
		c-0.4-0.1-1.1-0.1-1.6,0c-0.1-0.1,0.6-0.4,1.2-0.3c-0.3-0.6-1.4,0.3-1.4-0.3c-1.4-0.2-1.1,0.6-2.2,0.2c0,0.3-0.3,0.1-0.4,0.4
		c0.3,0.4,1.6,0,2.4,0.2c-0.1,0-0.2,0.1-0.3,0.1c0.6,0.1,0.8,0,1.2-0.1l0,0c0.7-0.2,0.4,0.2,0.8,0.3c0.2,0,0.7,0,0.6-0.1l0.7,0.3
		V7.1c0.4,0,0.5,0.2,0.9,0V6.8l-1-0.1c0.5-0.1,0.1-0.2,0.7-0.3c-0.6,0.3,0.4,0.2,0.5,0.4l0.4-0.1l-0.2,0c0.3,0.1,0.4-0.1,0.8-0.1
		c-0.4-0.2-0.7-0.3-1.3-0.2c0.4-0.1,1.2-0.3,1.4-0.3C98.3,6,98.6,6.2,99,6.3c-0.8,0.1,0.3,0.8-1.3,0.6h0.2c-0.2-0.3-0.9,0-1.3,0.1
		c0.1,0.2-0.3,0.2,0.3,0.4C96.8,7.3,97.5,7,98,7.2l-0.1,0.4l0.8,0.1h-0.1c0.3,0.3,0.9,0,1.5,0.1c0.4-0.1,2,0,1.3-0.4
		c0.5,0.3,1,0,1.5-0.1l-0.7-0.2c0.8-0.3,0.6-0.1,1.3-0.5c0.1,0.1,0.2,0.2,0.1,0.3c1.1,0,2.7,0.2,3.4-0.1c0.8,0.1,0.9,0.5,2,0.4
		c0.2,0-0.2-0.4,0.6-0.2c0,0-0.7,0.3,0.1,0.3c0.6-0.3,1.3,0.2,2.1,0c0.4,0.1,1.1,0.1,0.9,0.4c-0.6-0.1-1.5-0.1-1.7,0
		c0.1-0.1-0.4-0.2,0-0.3c-0.9-0.2-0.6,0.1-1.5,0c-0.1,0.1,0.4,0.3,0.6,0.2c0,0.3-1.7,0.1-0.9,0.5c0.9,0.1,1.2-0.6,2-0.2
		c-0.3,0.2-0.8,0-1.2,0.3l0.6,0.2l0.5-0.2l0,0c1.1,0.4,1.1-0.3,2.1-0.4c-0.6-0.3,0.2-0.6-0.3-0.8c0.7,0,1.2,0.1,1.2,0.4
		c-1.3,0.2-0.1,0.4-1.3,0.6c0.2,0.1-0.3,0.5,0.4,0.6c0.8-0.2-0.2-0.3,0.6-0.4l0.1,0.1c0.4-0.2,0.4,0.1,0.9-0.1l-0.1,0.1
		c0.5,0.2,0.6-0.2,1.1,0.1c-0.2-0.3,0.3-0.2,0.6-0.3c-0.5-0.1-0.7-0.5-1.6-0.5c-0.1,0.2-0.1,0.3-0.4,0.4h0.6c-0.1,0-0.2,0.1-0.4,0.1
		L114,8c0.7-0.1,0.4-0.3,0.7-0.5c0.7,0.1,0.6,0,1,0.1c-0.1,0.3,1.3,0.6,2,0.8c-0.1,0-0.3,0-0.4,0c-0.6,0.2,0.4,0.3,0.4,0.4l0.4-0.1
		c-0.1,0-0.2,0.1,0,0.1c0.6,0,0.5-0.3,1.1-0.3c0,0.2-0.5,0.4-0.1,0.5c0.1,0.1,0.5,0.5,1.2,0.4c0.1-0.1,0.3-0.1,0.5-0.1h-0.1l0.5,0.2
		c-0.4,0.2-0.8-0.2-1.3,0.1l-0.1,0.3c-0.3,0-0.8,0.1-1,0.2c0.5,0.1,0.6,0,1.2,0c0.1,0.2-0.3,0.3-0.4,0.3l0.1-0.1
		c-0.7-0.3-1,0.2-1.8,0.1c-0.1,0,0,0,0-0.1c-0.7,0.2-1.3-0.2-2,0.1l0.2-0.1c-0.4,0.1-1.3,0.3-2.2,0.5v0.1c0.1,0.1-0.2,0-0.4,0l0,0
		c-0.4,0.1-0.9,0.2-1.2,0.3c0.1,0.1,0.2,0.1,0.4,0.1c0.1-0.1,0.9,0,0.8-0.3c0.4,0.2,1,0,1.2,0.1c-0.5-0.2,0.4-0.2,0.4-0.4
		c0.2,0.2,0.7,0,0.7,0.3c0.1,0.1-0.2-0.2-0.4,0c-0.5,0.2,0.9,0.2,0.3,0.4c0.8-0.1,1.9,0,2.7-0.2l-0.5-0.1c0.4,0.1,1.3,0.1,1.3,0.2
		c-0.3,0-0.6,0-1,0c0,0.3,0.9,0,0.9,0.2l1.1-0.4h-0.5c0.3-0.1,1.2,0.1,1.9,0.2c-0.4,0.3-1.1-0.1-1.8,0c-0.5,0.1,0.3,0.4-0.2,0.4
		c0.1,0.1,0.5,0.1,0.6,0l0.2,0.1c-0.5,0.3-1.5,0.2-2.2,0.4c0.1,0,0.1-0.1,0.1-0.1c-0.5-0.2-1-0.2-1.5-0.1c0.3,0.1,0.4,0.1,0.5,0
		c0,0.1-0.5,0.1-0.7,0.2c0.5,0.1,0.1,0.2,0.4,0.3c-0.3,0.1-0.6,0-0.9,0c-0.2-0.1,0.2-0.2,0.1-0.3c-0.4,0.1-0.5-0.3-1.1-0.2
		c0.7,0.1-0.2,0.3-0.5,0.4h0.1c-0.2,0.2-0.4,0.2-0.6,0c0.3-0.1,0.6,0,0.5-0.2c-0.2,0-0.4,0-0.6,0l0.2-0.1h-1
		c-0.2,0.2-0.4,0.4-0.6,0.6c-0.2-0.2-0.6-0.1-0.8,0l0.1-0.1c-0.4-0.2-1.4-0.1-1.5,0.1c-0.3-0.1,2.3-0.9,0-0.8c-0.9,0-0.6,0.5-1,0.6
		c0,0,0,0,0-0.1c-0.4-0.1-0.4,0.1-0.7,0.2c0.2,0.1,0.5,0.1,0.6,0c-0.1,0.2-0.8-0.1-1.1,0.1c0.4-0.3-0.7-0.1-0.4-0.3
		c-0.7-0.2-1.5,0-1.9,0.2c-0.5-0.4-0.9,0-1.7-0.2c0.1,0,0.4,0,0.5,0c0.5-0.2-0.8-0.2-0.1-0.4c-0.2,0,0,0.1,0.1,0.1
		c0.3,0,0.5-0.1,0.5-0.2l-0.7-0.2l0.2-0.1l-1-0.3l0.1,0.1c-1.2-0.2-2.5,0-3.5-0.1c-0.2,0.7-2.5,0.2-3.4,0.6c0.2-0.2,0.4-0.5,0.2-0.7
		c0.2,0,0.6-0.3,1-0.2c0.1,0.1,0.6,0.3,0.2,0.4c1.2,0-0.1-0.3,0.2-0.6c-1.3,0-2,0.4-2.9,0.6v-0.1L95,11.4c0.5,0.1,0.5,0.4-0.2,0.3
		h0.1c-0.4-0.2-1.1,0-1.7,0l-0.4,0.2c-0.6,0-0.6-0.5-0.8-0.7c-0.9,0-1.4,0.3-2.1,0.5c-0.3-0.2-1.6-0.2-0.9-0.5
		c-0.8,0.2-0.7,1.2-2,0.6l0.4-0.2c-1.3,0-3.2,0.4-3.8,0.2c0.5-0.6-1.7-0.7-1.9-1.3c0.1,0.1-0.4,0.2-0.5,0.3c-0.1-0.1-0.3-0.1-0.5,0
		c0.5,0.1-0.4,0.7,0.6,0.4c-0.5,0.4-1.1,0.8-2.2,0.8v-0.3l0.9,0.1c-0.1-0.2,0.4-0.2,0.5-0.3c-1.6-0.1,0.2-0.6-1.5-0.6
		c0.2,0.1,0.3,0.1-0.1,0.1c0.2,0,0.2-0.2-0.1-0.2L78.5,11c-0.6-0.4,1-0.3,0.5-0.6c0.6-0.2,1.7-0.3,1.5-0.7c-1-0.1-0.9,0.6-2,0.5
		l-0.1-0.1c-0.4,0.1-0.4,0.3-0.6,0.5c0-0.1-0.1-0.1-0.4-0.2c-0.6,0.3-1.1,0.4-1.7,0.8c1.6-0.3,1.4,0.2,3,0c-0.3,0.1-1.4,0.2-1.5,0.6
		v-0.3c-0.5,0.1-1.1,0.3-1.7,0.2l0.4-0.2c-0.9,0.2-1.5-0.4-2.2,0.1c0.2,0,0.4,0,0.6,0c-0.5,0.1-1,0.1-1.5,0.1l-1,0.5
		c0-0.1-0.6-0.1-0.3-0.3c-0.7-0.2-1.1,0.2-1.5,0.3c-0.8-0.3,0.7-0.1,0.7-0.5c-1-0.1-2.2,0.1-2.7,0.3c0.2,0,0.3,0.1,0.3,0.2
		c0-0.1-0.5,0-0.7,0l-0.2,0.2c-0.4-0.1-0.3-0.2,0-0.3c-0.4,0-0.8,0.3-1.2,0.1c0.6-0.2,1.4-0.1,1.8-0.2c-1.3,0.2-1.4-0.5-3-0.2
		c0-0.1,0.3-0.3-0.1-0.2c-0.8,0.1-0.2,0.4-0.4,0.6c0.6-0.1,0.9,0,1.2,0.2l-0.1,0.1c0-0.1-0.4-0.1-0.5-0.1L65,12.7
		c0-0.3-0.6-0.5-1-0.4c0.5,0.2,0.3,0.2,0.5,0.5c-0.6,0.4-0.7-0.3-1.4,0.1c0-0.1,0.7-0.2,0.1-0.3c-0.5,0-0.4,0.2-0.7,0.3
		c0.3-0.3,0.2-0.5,0.6-0.8c0.8-0.1,0.3,0,1.1-0.2l-0.7-0.2c0.7-0.1,0.5-0.3,0.5-0.4c-1.2-0.2-0.9,0.4-1.6,0.4
		c-0.4,0.2,0.7,0,0.1,0.2c-0.7,0-0.2,0.2-0.9,0.3l0.1-0.1c-0.2-0.1-0.5,0.1-0.8,0.1c-0.3,0.1,0.4,0.9-0.9,1c0-0.2,0.1-0.2,0-0.3
		l1.1-2.2c-1.3,0.1-2.7,0.1-4.2,0c-0.4-0.4,1-0.4,0.9-0.6h0.7c0,0.2-1.4,0.1-0.8,0.4c1.2-0.2,1.7,0,2.8-0.5
		c-0.4-0.4-1.5,0.1-2.2-0.1c0.3,0,0.6-0.1,0.8-0.1c-0.7,0-1.4,0-2.2,0l-0.2,0.1c0.5,0,0.9,0,0.9,0c-0.7,0-1.3,0.3-1.3,0.6h0.1
		l-0.2,0.1L55.8,10.6z M10.6,15.3l0.1-0.1C10.7,15.2,10.7,15.2,10.6,15.3z M69.5,8.9c-0.9,0-1.9-0.1-2.8-0.1c1.6,0.6,2.8,1,0.1,1.1
		L66.6,10c0.4,0.1,1,0.1,1.5,0C68.6,9.8,70,8.9,70,8.8c-0.2-0.2-0.4,0-0.7,0L69.5,8.9z M70.2,10c0.5,0.1,0.4-0.1,0.5-0.2
		C70.5,9.8,70.3,9.8,70.2,10C70.2,9.9,70.2,9.9,70.2,10z M70.6,9.6C70.5,9.6,70.5,9.6,70.6,9.6L70.6,9.6z M60.3,9.9
		C60.4,9.9,60.4,9.9,60.3,9.9c-0.1,0-0.2,0-0.3,0C60.1,9.9,60.2,9.9,60.3,9.9z M61.4,10.2l0.1-0.2c-0.1,0-0.2,0-0.4,0
		C61.2,10,61.3,10.1,61.4,10.2z M64.9,10.7c0.2-0.3,0.9-0.3,1-0.6c0-0.1-0.1-0.1-0.3-0.1c-0.2,0-0.4,0-0.6,0c0,0,0,0.1-0.1,0.1
		c0.2,0,0.4,0.1,0.3,0.3c-0.6-0.4-0.5,0.3-1.1,0.2C63.9,10.9,64.7,10.8,64.9,10.7z M110.8,10c0,0,0.1,0.1,0.1,0.2l-0.4,0.1
		c-0.7-0.1-1.3-0.6-2-0.2c-0.3-0.1-0.5-0.3-0.6-0.5c0.2,0,0.3,0,0.4,0.1C110.2,9.2,109.2,10.3,110.8,10z M102.2,9.1
		c0.1,0,0.1-0.1,0.1-0.1c-1.7,0.5-3.1,0.7-4,0.6c0.2,0.2,1,0.4,1.4,0.5l-0.3,0.3l-0.2-0.2l-0.6,0.2c0.2,0.2,0.6,0.2,1,0.3
		c0,0,1.1-0.3,1.3-0.5l-0.8-0.2c0.2,0.1,1.3,0,1.7,0c0-0.1-0.7-0.4-0.8-0.1c-0.1-0.2,0.8-0.2,0.2-0.4c0.6-0.2,1.7,0,2.1,0.1l0.1,0.3
		c0.5,0.1,0.4-0.4,1-0.2c-0.8,0,0.1,0.4-0.5,0.4c0.2,0.1,0,0.3,0.6,0.3c0.5-0.4,0.6,0.3,1.1-0.1c0.3,0.1-0.4,0.2,0.3,0.3
		c0.7-0.2,0.7-0.4,0.7-0.7c-0.7-0.1-0.8,0.4-1.3,0.3l1.1-0.5c-0.2-0.1-0.3-0.1-0.5-0.1c0.2,0,0.4-0.1,0.6-0.2
		c0.1-0.1,0.2-0.1,0.3-0.1c-0.6,0-1.2-0.1-1.3-0.2l0.1-0.1c-0.2-0.2-0.6-0.1-0.7,0.1c-0.6,0-1.1,0.2-1.2,0l0.2-0.1
		C103.1,9.1,103,9.1,102.2,9.1z M79.8,8.6c0.4,0.6,0.9,1,2.8,0.9h-0.2c1,0.3,1.9-0.5,3.1-0.1C85,9.7,85,9.7,84.4,10.1L85,10
		c-0.2,0.3,0.4,0.1,0.9,0.2l-0.4,0.4c-0.3-0.1-1-0.1-1-0.1c0.2,0-0.9-0.5-1.5-0.3c0.1,0.2,1.3,0.1,0.7,0.5c0.5-0.2,0.5,0.1,1.1,0
		c-0.5,0.2-0.1,0.3-0.5,0.5l0.8-0.1c0,0.1-1.2,0.2-0.5,0.5c0.3-0.1,1.2,0,1.2-0.2v0.1c0.6,0.1,0.3-0.4,1-0.2c0-0.1-0.1-0.2-0.4-0.2
		c-0.2,0.1-0.3,0.2-0.7,0.3c-0.2-0.2,0.6,0,0.2-0.3c-0.2-0.2-1.3,0.2-0.9-0.2l0.6,0.1c0-0.3,0.5-0.2,0.5-0.5c0.4-0.1,0.7,0.2,1.1,0
		c0.2-0.2-0.1-0.5,0.5-0.4c0.5,0.4,2,0.3,2.5,0.3l0.5-0.2c0-0.2-0.9,0-0.6-0.2L91,9.7v0.1c0.3,0,0.5-0.1,0.7-0.1
		c-0.2,0.2-0.8,0.1-0.7,0.4c0.4,0.1,0.4,0.2,0.7,0.1c-0.1,0-0.1,0-0.1,0.1c0.7,0.1,0.7-0.3,0.9-0.4c0.7-0.3-0.7-0.3-0.6-0.6L94,9.2
		c-0.2,0.1-0.4,0.2-0.3,0.3c0.5,0.1,0,0.2,0.7,0.2c0-0.4,0.9-0.2,1.4-0.4c0.2,0.2,0.3,0.2-0.2,0.2c0.1,0.2,0.8,0.2,1,0.2
		c0.1-0.1,0.4-0.1,0.6-0.1c-0.2-0.1-0.1-0.3,0.3-0.4V9.1C96.8,9,95.6,8.7,95.1,9l0.1-0.1c-0.9-0.2-1.9,0.4-2.3-0.1
		c0-0.2-0.2,0-0.2-0.3l-0.6,0.2l0.1-0.1h-1.1l0,0c-0.5,0.2-0.9,0.4-1.2,0.6c0,0.1,0,0.2-0.1,0.2c-0.2,0.1-0.3,0.1-0.4,0.1l0,0l0,0
		c-0.3,0-0.4-0.2-0.8-0.3h1c0.1-0.2,0-0.4-0.5-0.5c0.2,0,0.3-0.2,0-0.2c0,0.1-0.7,0.1-0.4,0.3c-1,0.1-2.5-0.4-4-0.1
		c1-0.2-0.8-0.3,0.3-0.3c-0.8-0.3-0.7,0.3-1.5,0.3c-0.1-0.1,0.5,0,0.6-0.2C83,8.2,82,8.8,80.7,8.7l-0.1-0.2
		C80.4,8.5,80.1,8.6,79.8,8.6z M77.2,8.9C77,9,76.7,9,76.4,9h0.1l-0.8,0.2c0.5,0.1,0.8,0.3,0.1,0.5c0.1-0.1-0.1-0.2,0.1-0.3
		c-0.4-0.1-1.4-0.3-1.2,0.1c0.8-0.4,0.2,0.5,0.9,0.2c-0.4,0.2-0.7,0.1-1,0.3C75,9.8,74.5,9.6,74,9.5c-0.2,0.1-0.9,0-1.2,0.1
		c0.1,0.2-0.2,0.4,0.4,0.4c-0.2,0.1-0.6,0.1-1,0c0.2,0,0.4-0.1,0.4-0.2c-0.3-0.2-0.6-0.2-0.7-0.3c-0.1,0-0.3,0-0.4,0
		c0,0,0.1,0,0.1,0.1l-0.4,0.2c0.6-0.1,0.3,0.1,0.3,0.2c0-0.3-0.4,0-0.6,0l0.4,0.3c-0.2,0.1-0.7-0.2-0.6,0.1c0.9,0.1,1.3,0,2.1-0.1
		l-0.3-0.2c0.9-0.2,0.6,0.4,1.6,0.3c0.4-0.2,1.6,0,1.6-0.4c-0.1,0.1,0.7,0.3,1,0.2c0.4-0.4,1.6-0.4,1.2-0.6c-0.3,0-0.8,0.2-1,0
		l0.6-0.1l-0.4-0.2C77.3,9.4,77.3,9.2,77.2,8.9z M62.9,7.2L62.9,7.2L62.9,7.2L62.9,7.2z"/>
	<path class="st0" d="M120.2,9.7c0.2-0.1,0.6,0,0.6-0.2C120.8,9.6,120,9.4,120.2,9.7z"/>
	<path class="st0" d="M120.7,9.9c0,0,0-0.1,0.2-0.1h-0.6L120.7,9.9z"/>
	<path class="st0" d="M121.2,11.4c0.3-0.1,0.5-0.2,0.9-0.2c0.1,0.5-0.7,0.1-1,0.6c0.8,0.1,1.1-0.3,1.8-0.3
		C122.6,11.2,121.3,11,121.2,11.4z"/>
	<polygon class="st0" points="120.8,12 121.3,11.9 121.2,11.9 	"/>
	<path class="st0" d="M111.1,7c0-0.2-0.3,0-0.5,0C110.7,7,110.9,7.1,111.1,7z"/>
	<path class="st0" d="M20.4,10.5L17,11.1C18,11,18.9,10.8,20.4,10.5z"/>
	<path class="st0" d="M99.4,7.6c0.9-0.1,1.4-0.4,2.3-0.4c-1.3-0.4-1.7,0.5-2.7,0.1L99.4,7.6z"/>
	<path class="st0" d="M99.7,6.4C99.8,6.7,99,6.7,99.1,7c0.6-0.1,0.3-0.3,0.9-0.2L99.7,6.4z"/>
	<polygon class="st0" points="103.9,11.5 103.6,11.7 103.8,11.6 	"/>
	<polygon class="st0" points="95.4,6.5 95.5,6.5 95.1,6.4 	"/>
	<path class="st0" d="M95.6,6.4L95.6,6.4L95.6,6.4z"/>
	<polygon class="st0" points="103.5,12.2 103.9,12.2 104.1,12.1 	"/>
	<path class="st0" d="M99.8,10.4l0.4-0.1C100.1,10.4,99.6,10.2,99.8,10.4z"/>
	<polygon class="st0" points="92.5,6.4 92.1,6.5 92.1,6.5 92.6,6.4 	"/>
	<path class="st0" d="M96.8,11.2c0.3,0.2-0.8,0.1-0.2,0.3C97.1,11.4,96.9,11.3,96.8,11.2z"/>
	<path class="st0" d="M91.3,9.5c-0.1,0-0.1,0-0.2,0C91.2,9.6,91.2,9.5,91.3,9.5z"/>
	<path class="st0" d="M91.3,9.5c0.2,0,0.4,0.1,0.5,0C91.6,9.5,91.5,9.5,91.3,9.5z"/>
	<path class="st0" d="M89,9.6h0.2c-0.2,0.1-0.1,0.1,0.1,0c0.2,0,0.2-0.1,0.2-0.1l0.1-0.1c-0.1,0-0.1,0.1-0.2,0.1
		C89.1,9.5,88.9,9.5,89,9.6z"/>
	<path class="st0" d="M80.4,5.7c0.6,0,0.8,0.1,0.8,0.3c0.6,0,0.5-0.3,0.9-0.3C81.4,5.7,81.2,5.6,80.4,5.7z"/>
	<path class="st0" d="M82.1,5.6c0.1,0,0.2,0,0.3,0C82.3,5.6,82.2,5.6,82.1,5.6z"/>
	<polygon class="st0" points="91.6,11.6 91.2,11.9 91.4,11.8 	"/>
	<path class="st0" d="M79.4,5.6c0.1,0,0.3,0,0.4,0.1C79.8,5.5,79.2,5.6,79.4,5.6z"/>
	<path class="st0" d="M82,9.1c0.1,0.1,0.5,0,0.7,0.1C82.4,9.2,82.2,8.8,82,9.1z"/>
	<path class="st0" d="M77.4,6.4c0.1,0,0.3,0.1,0.2,0.3C77.8,6.6,78.1,6.2,77.4,6.4z"/>
	<polygon class="st0" points="80.8,9.1 80.9,9.2 81.3,9 	"/>
	<path class="st0" d="M82.4,11.8c0.5-0.2-0.8-0.5,0.1-0.7c-1.1-0.2,0.1,0.3-0.8,0.3C82.2,11.4,82.5,11.7,82.4,11.8z"/>
	<path class="st0" d="M81.8,11.3c-0.1,0-0.2,0-0.2,0C81.6,11.3,81.7,11.3,81.8,11.3z"/>
	<path class="st0" d="M74.5,10.1c0.1,0,0.1-0.1,0.2-0.1C74.6,10,74.5,10.1,74.5,10.1z"/>
	<path class="st0" d="M79.1,11.6l0.8-0.3c-0.5,0.2-1.8,0.2-1.7,0.6c0.4,0.1,0.9,0,1.1-0.2L79.1,11.6z"/>
	<path class="st0" d="M70,5.9l0.3-0.1L70,5.9C70,5.8,69.8,6,70,5.9z"/>
	<path class="st0" d="M69.8,5.7L69.8,5.7C69.9,5.7,69.8,5.7,69.8,5.7z"/>
	<path class="st0" d="M75.9,9.9c0.3,0,0.5,0,0.7-0.1C76.5,9.8,75.9,9.7,75.9,9.9z"/>
	<path class="st0" d="M67.6,6.4h0.6H67.6z"/>
	<polygon class="st0" points="65,6 64.9,5.9 64.4,6.1 64.5,6.1 	"/>
	<path class="st0" d="M68.6,12.2c0.4,0,0.7-0.3,0.6-0.3h-0.7c0.2,0.2,0.2,0,0.6,0L68.6,12.2z"/>
	<path class="st0" d="M45.7,7.6c0.1-0.2,1-0.1,1,0c-0.1,0.1-0.5,0.2-0.2,0.3l0.6-0.5c0.9,0.2-0.6,0.6-1,0.8c0.9,0,1.1-0.3,2-0.4
		c-0.3,0-0.4-0.1-0.6-0.2c-0.1-0.3,0.8-0.2,1.4-0.3c-0.4,0-0.2-0.1,0.1-0.3c0.1,0,0.1,0,0.1-0.1h0.1h-0.1c0,0,0-0.1-0.1-0.1
		c-0.5,0.1-0.9-0.1-1.2-0.1c0.4,0.5-1.1,0.2-1.5,0.4l-0.5,0.1h-0.2c0,0,0-0.1,0.3-0.2c-0.2,0.1-1,0.1-0.9,0.3l-1.7,0.1
		c-0.1,0-0.1,0-0.2-0.1C43,7.3,43,7.4,43,7.4l-7.5,0.7c0.4,0,0.7,0.1,1.1,0.1c-0.5,0.4,0.6,0,0.5,0.3c-0.2,0.1-0.6,0.1-0.9,0.1
		c-0.1,0.2,0.3,0.3,0.2,0.4c1,0.1,1-0.6,2-0.6c0,0.2-0.3,0.4,0.3,0.3l-0.2,0.1c1-0.3,0.8,0.3,1.4-0.2v0.3c0.4-0.2,1.3-0.3,1.8-0.4
		v0.1C43,8.2,42.5,8.5,44,8.2l-0.7,0.4c0.5,0.1,0.6-0.3,1-0.3c0,0.1,0.1,0.2-0.3,0.3L45.8,8C46.3,7.7,45.8,7.7,45.7,7.6z"/>
	<path class="st0" d="M48.1,7.9c0.1,0,0.2,0,0.3,0C48.3,7.8,48.2,7.8,48.1,7.9z"/>
	<path class="st0" d="M35.1,8.2l0.5-0.1C35.4,8.1,35.3,8.1,35.1,8.2z"/>
	<path class="st0" d="M50.7,7.1C50.4,7,50.9,6.9,51,6.8l-1.1,0.1c0,0.1-0.1,0.2-0.1,0.3L50.7,7.1z"/>
	<path class="st0" d="M49.5,6.7c0,0.1-0.2,0.1-0.3,0.2h0.6C49.8,6.8,49.8,6.7,49.5,6.7z"/>
	<polygon class="st0" points="50,12.1 49.8,12.1 49.5,12.2 	"/>
	<path class="st0" d="M46.8,11.9c0.3,0.1,0.7,0,0.8-0.1C47.1,11.9,47.4,11.8,46.8,11.9z"/>
	<polygon class="st0" points="47.6,13.5 47.1,13.6 47.1,13.6 	"/>
	<path class="st0" d="M31.3,9.6c-0.1,0-0.2,0-0.2,0C31.1,9.7,31.2,9.6,31.3,9.6z"/>
	<path class="st0" d="M35.6,8.9c-1.2-0.2,0.8-0.3,0.4-0.7l-0.7,0.2V8.3l-0.8,0.1c0.2,0.2,0.3,0.2,0.3,0.3c-1.1,0-0.4-0.2-1.2-0.3
		l-1.2,0.2l0.1-0.1c-0.1,0-0.1,0-0.2,0.1l-4,0.5c-0.7,0.2,0.4,0.3-0.1,0.6c0.9-0.1,2.1,0,2.2-0.4c0,0.1-0.1,0.2,0.1,0.2L31,9.2h-0.5
		c0.5-0.3,2.1-0.5,2.4-0.3c-0.9,0.2-0.4,0.5-1.7,0.4c0.1,0.1,0.3,0.2,0,0.3C32.8,9.4,34.1,9.4,35.6,8.9z"/>
	<path class="st0" d="M20.7,10.8L20.7,10.8L20.7,10.8z"/>
	<path class="st0" d="M21.2,10.8l0.7-0.4l-1.1,0.2l-0.1,0.3c0.1-0.1,0.5-0.2,0.6-0.2L21.2,10.8z"/>
	<path class="st0" d="M22.7,10c-0.6,0.2-0.5,0.5-0.2,0.6c-0.5,0.2-0.3-0.3-0.7,0.1c0,0.2,0.7,0,0.8-0.1L22.7,10z"/>
	<polygon class="st0" points="27,9.6 26.9,9.8 27.3,9.8 	"/>
	<path class="st0" d="M26.9,9.8h-0.4c0,0.1,0.1,0.2,0.1,0.2L26.9,9.8z"/>
	<path class="st0" d="M25.4,9.8c-0.2,0-0.4,0-0.6,0H25.4z"/>
	<path class="st0" d="M25.9,9.9L25.9,9.9h-0.5C25.6,9.8,25.7,9.8,25.9,9.9z"/>
	<path class="st0" d="M26.5,9.8c-0.1-0.2-0.2-0.4-0.8-0.3l0.2,0.3H26.5z"/>
	<polygon class="st0" points="43.9,13.4 43.4,13.6 43.5,13.6 43.9,13.5 	"/>
	<path class="st0" d="M41.2,13.5c-0.1,0-0.2,0.1-0.3,0.1C41.1,13.6,41.2,13.6,41.2,13.5z"/>
	<path class="st0" d="M39.4,15.1c-0.6-0.2,0.7-0.3-0.3-0.3c-0.1-0.2,0.3-0.5,0.8-0.4c0,0.2-0.4,0.2-0.1,0.3c0.3-0.2,0.4-0.1,0.3-0.4
		c0.5-0.2,0.5-0.4,0.9-0.6c-0.6,0.2-2,0-2.7,0.4c-0.4,0.4-0.1,0.8-0.1,1.3C38.3,15.4,39.4,15.4,39.4,15.1z"/>
	<path class="st0" d="M40.3,15.5c0.2,0,0.3,0,0.5-0.1C40.7,15.2,40.5,15.4,40.3,15.5z"/>
	<path class="st0" d="M34.3,12.4c0,0.1-0.5,0.2-0.4,0.3l0.7-0.2C34.4,12.6,34.3,12.5,34.3,12.4z"/>
	<path class="st0" d="M34.9,12.5l-0.3,0.1C34.6,12.6,34.7,12.6,34.9,12.5z"/>
	<path class="st0" d="M34.2,12.4L34.2,12.4C34.3,12.4,34.3,12.4,34.2,12.4z"/>
	<path class="st0" d="M23.7,9.9c0-0.1-0.3,0-0.5,0C23.4,10,23.6,10,23.7,9.9z"/>
	<path class="st0" d="M12.3,11.9H12C12.1,11.9,12.2,11.9,12.3,11.9z"/>
	<path class="st0" d="M8.7,16.1L8.7,16.1L8.7,16.1z"/>
	<path class="st0" d="M8.7,16.2c-0.2,0.1-0.8,0.1-0.9,0.2v-0.1l-0.4,0.2C7.7,16.4,8.5,16.3,8.7,16.2z"/>
</g>
</svg>
